HIERARCHY
ROOT Hips
{
	OFFSET 0.000000 0.000000 0.000000
	CHANNELS 6 Xposition Yposition Zposition Zrotation Xrotation Yrotation
	JOINT RightUpLeg
	{
		OFFSET -9.711200 0.000000 0.000000
		CHANNELS 3 Zrotation Xrotation Yrotation
		JOINT RightLeg
		{
			OFFSET 0.000000 -42.071800 0.000000
			CHANNELS 3 Zrotation Xrotation Yrotation
			JOINT RightFoot
			{
				OFFSET 0.000000 -40.121000 0.000000
				CHANNELS 3 Zrotation Xrotation Yrotation
				JOINT RightToe
				{
					OFFSET 0.000000 -9.631400 3.100600
					CHANNELS 3 Zrotation Xrotation Yrotation
					JOINT RightToeEnd
					{
						OFFSET 0.000000 -4.048200 4.118000
						CHANNELS 3 Zrotation Xrotation Yrotation
						End Site
						{
						    OFFSET 0.000000 -3.505200 3.565600
						}
					}
				}
			}
		}
	}
	JOINT LeftUpLeg
	{
		OFFSET 9.711200 0.000000 0.000000
		CHANNELS 3 Zrotation Xrotation Yrotation
		JOINT LeftLeg
		{
			OFFSET 0.000000 -42.071800 0.000000
			CHANNELS 3 Zrotation Xrotation Yrotation
			JOINT LeftFoot
			{
				OFFSET 0.000000 -40.121000 0.000000
				CHANNELS 3 Zrotation Xrotation Yrotation
				JOINT LeftToe
				{
					OFFSET 0.000000 -9.631400 3.100600
					CHANNELS 3 Zrotation Xrotation Yrotation
					JOINT LeftToeEnd
					{
						OFFSET 0.000000 -4.048200 4.118000
						CHANNELS 3 Zrotation Xrotation Yrotation
						End Site
						{
						    OFFSET 0.000000 -3.505200 3.565600
						}
					}
				}
			}
		}
	}
	JOINT Spine
	{
		OFFSET 0.000000 14.595200 0.000000
		CHANNELS 3 Zrotation Xrotation Yrotation
		JOINT Spine1
		{
			OFFSET 0.000000 9.770300 0.000000
			CHANNELS 3 Zrotation Xrotation Yrotation
			JOINT Spine2
			{
				OFFSET 0.000000 14.330100 0.000000
				CHANNELS 3 Zrotation Xrotation Yrotation
				JOINT LeftShoulder
				{
					OFFSET 2.000000 14.330100 0.000000
					CHANNELS 3 Zrotation Xrotation Yrotation
					JOINT LeftArm
					{
						OFFSET 14.369100 0.000000 0.000000
						CHANNELS 3 Zrotation Xrotation Yrotation
						JOINT LeftForeArm
						{
							OFFSET 0.000000 -27.196400 0.000000
							CHANNELS 3 Zrotation Xrotation Yrotation
							JOINT LeftHand
							{
								OFFSET 0.000000 -24.849000 0.000000
								CHANNELS 3 Zrotation Xrotation Yrotation
								JOINT LeftFinger0
								{
									OFFSET 0.000000 -7.367300 0.000000
									CHANNELS 3 Zrotation Xrotation Yrotation
									End Site
									{
									    OFFSET 0.000000 -5.000000 0.000000
									}
								}
							}
						}
					}
				}
				JOINT RightShoulder
				{
					OFFSET -2.000000 14.330100 0.000000
					CHANNELS 3 Zrotation Xrotation Yrotation
					JOINT RightArm
					{
						OFFSET -14.369100 0.000000 0.000000
						CHANNELS 3 Zrotation Xrotation Yrotation
						JOINT RightForeArm
						{
							OFFSET 0.000000 -27.196400 0.000000
							CHANNELS 3 Zrotation Xrotation Yrotation
							JOINT RightHand
							{
								OFFSET 0.000000 -24.849000 0.000000
								CHANNELS 3 Zrotation Xrotation Yrotation
								JOINT RightFinger0
								{
									OFFSET 0.000000 -7.367300 0.000000
									CHANNELS 3 Zrotation Xrotation Yrotation
									End Site
									{
									    OFFSET 0.000000 -5.000000 0.000000
									}
								}
							}
						}
					}
				}
				JOINT Neck
				{
					OFFSET 0.000000 14.330100 0.000000
					CHANNELS 3 Zrotation Xrotation Yrotation
					JOINT Head
					{
						OFFSET 0.000000 8.944300 0.000000
						CHANNELS 3 Zrotation Xrotation Yrotation
						JOINT HeadTip
						{
							OFFSET 0.000000 10.000000 0.000000
							CHANNELS 3 Zrotation Xrotation Yrotation
							End Site
							{
							    OFFSET 0.000000 5.000000 0.000000
							}
						}
					}
				}
			}
		}
	}
}
MOTION
Frames:	11
Frame Time:	0.033332
-32.681500 93.637600 -103.286200 11.653849 57.377552 54.429225 -57.101965 -36.959300 -62.782798 -0.000000 21.458485 -0.000000 -26.065554 -42.850115 -40.587906 -0.000000 -7.592535 -0.000000 -0.000000 -0.000000 -0.000000 37.527649 -8.345102 12.942250 180.000037 61.847384 180.000037 -14.912195 -6.857908 -8.939106 -0.000000 17.897958 -0.000000 -0.000000 0.000000 -0.000000 -5.184195 8.419201 12.711205 -0.000000 0.791160 0.000000 -0.000000 0.000000 -0.000000 -29.684414 0.000001 7.738279 55.929377 3.871175 40.657210 0.000000 -34.787991 -0.000000 6.855246 -0.371213 0.111305 -0.000000 0.000000 0.000000 -21.351866 -0.000000 4.016695 -100.166971 -20.815959 -66.329676 -0.000327 -65.045654 -0.000208 -4.155462 -9.716013 4.367812 0.000000 -0.000000 0.000000 -0.000000 0.000000 -0.000000 -45.175655 -1.322711 -8.153109 -0.000000 -0.000000 0.000000 
-34.441100 93.482400 -101.905100 4.351236 56.331414 65.063616 -55.981715 -35.590139 -62.830121 -0.000000 22.137408 -0.000000 -25.485517 -42.161518 -40.130926 0.000000 -8.458053 -0.000000 0.000000 -0.000000 0.000000 37.583454 -8.436565 12.642228 180.000037 61.516598 -180.000037 -15.016939 -6.839647 -9.074932 -0.000000 18.290919 -0.000000 -0.000000 0.000000 -0.000000 -6.260146 8.330913 12.751421 -0.000000 0.623840 -0.000000 -0.000000 0.000000 0.000000 -29.637373 0.000000 8.008410 56.403234 3.281430 41.366804 -0.000000 -35.418817 -0.000000 6.887867 -0.400454 0.338503 -0.000000 0.000000 -0.000000 -21.370683 0.000000 3.996673 -101.441318 -21.415511 -66.168001 -0.000340 -65.904898 -0.000220 -3.722901 -9.702399 5.151899 0.000000 0.000000 -0.000000 -0.000000 0.000000 0.000000 -44.164589 -0.855417 -13.033465 -0.000000 0.000000 -0.000000 
-36.156600 93.386800 -100.436200 -2.358380 54.794174 75.237510 -55.302198 -34.415378 -62.761397 0.000000 23.176679 -0.000000 -24.046413 -41.172789 -39.104645 0.000000 -9.593920 0.000000 -0.000000 0.000000 -0.000000 37.589678 -8.475076 12.377194 180.000037 61.207505 -180.000037 -15.020013 -6.806716 -9.451172 -0.000000 18.052802 -0.000000 -0.000000 0.000000 0.000000 -7.041213 8.133943 12.819087 -0.000000 0.719050 -0.000000 -0.000000 -0.000000 0.000000 -29.421890 0.000000 8.315374 56.577085 2.613157 42.169908 0.000000 -35.930887 0.000000 6.872389 -0.326134 0.081918 0.000000 0.000000 0.000000 -21.280247 -0.000000 3.889552 -101.902867 -21.991877 -65.769704 -0.000356 -66.899354 -0.000235 -3.306065 -9.702161 5.856809 0.000000 0.000000 0.000000 -0.000000 -0.000000 0.000000 -43.068268 -0.537901 -17.677618 -0.000000 0.000000 0.000000 
-37.840700 93.287500 -98.860200 -8.436591 52.481488 84.849313 -54.966297 -33.525809 -62.963768 0.000000 25.045496 0.000000 -21.312342 -39.863603 -36.883149 -0.000000 -10.944700 0.000000 -0.000000 0.000000 0.000000 37.968595 -8.465839 12.249523 -180.000037 60.954487 -180.000037 -15.130614 -6.691821 -9.592096 -0.000000 18.020693 -0.000000 0.000000 0.000000 0.000000 -7.285469 7.987400 12.927050 -0.000000 0.672685 -0.000000 -0.000000 0.000000 -0.000000 -29.280145 0.000000 8.809823 56.793309 1.979645 42.805281 0.000000 -36.647620 0.000000 6.928739 -0.354890 0.396396 -0.000000 0.000000 0.000000 -20.800686 -0.000000 3.957165 -101.795549 -22.429244 -64.937415 -0.000374 -67.889117 -0.000252 -2.738768 -9.749472 6.178994 0.000000 0.000000 -0.000000 -0.000000 0.000000 -0.000000 -41.745839 0.110232 -22.043456 -0.000000 -0.000000 -0.000000 
-39.504600 93.114000 -97.177900 -13.506333 49.608990 93.701335 -54.753032 -32.763188 -63.070322 -0.000000 27.164590 -0.000000 -18.438779 -38.475348 -34.381034 -0.000000 -12.062209 0.000000 -0.000000 -0.000000 0.000000 38.289282 -8.511363 12.134714 -180.000037 60.541411 180.000037 -15.785640 -7.517295 -9.182270 0.000000 19.836986 -0.000000 -0.000000 0.000000 -0.000000 -7.350925 7.835204 12.961836 0.000000 0.664359 -0.000000 -0.000000 0.000000 -0.000000 -28.983570 0.000000 9.340910 57.107212 1.394489 43.834593 -0.000000 -37.752987 0.000000 6.826951 -0.465372 0.516005 -0.000000 0.000000 0.000000 -19.886142 0.000000 4.014779 -101.108341 -22.732809 -63.608768 -0.000390 -68.685708 -0.000266 -2.722981 -9.658150 6.016736 0.000000 0.000000 -0.000000 -0.000000 0.000000 -0.000000 -39.831466 0.703408 -26.609179 -0.000000 0.000000 -0.000000 
-41.098800 92.786000 -95.276700 -17.309777 46.211514 101.698862 -53.842945 -31.949774 -62.338445 0.000000 28.783297 0.000000 -16.745299 -37.230669 -32.586701 -0.000000 -12.291894 -0.000000 0.000000 0.000000 0.000000 38.481464 -8.491303 12.117131 -180.000037 60.198535 -180.000037 -15.418198 -7.757171 -9.751075 0.000000 18.634725 -0.000000 0.000000 0.000000 0.000000 -7.410351 7.882464 12.798851 -0.000000 0.682409 -0.000000 -0.000000 -0.000000 -0.000000 -28.263508 -0.000000 9.918197 57.583463 0.645412 45.226060 -0.000000 -39.193047 -0.000000 6.892869 -0.510136 0.889027 0.000000 -0.000000 -0.000000 -18.478092 0.000000 3.963561 -99.731620 -22.711073 -61.808428 -0.000406 -69.476951 -0.000282 -2.531830 -9.699130 6.598777 -0.000000 -0.000000 0.000000 -0.000000 -0.000000 -0.000000 -37.060327 0.794227 -31.717183 -0.000000 -0.000000 -0.000000 
-42.591500 92.350400 -93.204900 -20.268131 42.549616 109.140317 -52.579264 -31.274627 -61.194365 -0.000000 29.895270 -0.000000 -15.630375 -36.018075 -31.528591 0.000000 -12.607049 -0.000000 0.000000 0.000000 -0.000000 38.102212 -8.473363 12.136008 180.000037 60.331451 180.000037 -15.955433 -8.495391 -9.158937 0.000000 19.866321 -0.000000 0.000000 0.000000 -0.000000 -7.537560 7.891873 12.378037 -0.000000 0.644981 -0.000000 -0.000000 0.000000 -0.000000 -27.033893 0.000000 10.225626 58.394845 -0.047405 46.738595 -0.000000 -40.751219 0.000000 7.097998 -0.694573 1.141289 -0.000000 -0.000000 -0.000000 -16.754750 -0.000000 3.879113 -97.989583 -22.284187 -59.378728 -0.000420 -70.107720 -0.000295 -2.199505 -9.735418 7.103548 -0.000000 0.000000 -0.000000 -0.000000 0.000000 -0.000000 -33.946185 0.626903 -35.734747 0.000000 0.000000 -0.000000 
-43.968400 91.756200 -90.968300 -22.094689 38.399794 115.891718 -50.961091 -30.660692 -60.265180 -0.000000 31.107871 -0.000000 -14.642185 -35.041539 -30.454583 -0.000000 -12.243978 -0.000000 0.000000 -0.000000 0.000000 37.714053 -8.242824 12.101011 -180.000037 61.676725 -180.000037 -15.405963 -6.979693 -9.454313 0.000000 19.420226 0.000000 -0.000000 -0.000000 -0.000000 -7.211998 7.944217 11.588370 -0.000000 0.759581 -0.000000 -0.000000 0.000000 -0.000000 -25.787677 0.000000 10.575824 60.082745 -1.451689 48.521343 0.000000 -42.812656 -0.000000 7.309996 -1.063594 0.977967 -0.000000 0.000000 0.000000 -15.018286 0.000000 3.774238 -96.107343 -21.675335 -57.053068 -0.000425 -70.320541 -0.000299 -2.336666 -9.932989 6.756939 0.000000 0.000000 -0.000000 -0.000000 0.000000 -0.000000 -31.181648 -0.149537 -40.067252 -0.000000 0.000000 -0.000000 
-45.261900 91.034600 -88.583800 -23.231727 34.107802 122.373015 -49.391102 -30.187482 -59.401293 -0.000000 32.319260 -0.000000 -13.421004 -34.293085 -28.938013 -0.000000 -11.557290 -0.000000 0.000000 0.000000 0.000000 36.901381 -7.769321 12.244119 180.000037 63.633438 -180.000037 -14.981814 -7.661293 -9.492732 0.000000 18.758651 0.000000 -0.000000 0.000000 -0.000000 -6.971338 7.999139 10.513916 -0.000000 0.675145 -0.000000 -0.000000 -0.000000 0.000000 -23.818699 0.000000 10.573975 62.124191 -3.182815 50.367341 -0.000000 -45.678522 -0.000000 6.985017 -1.761798 1.388025 -0.000000 0.000000 -0.000000 -13.072279 0.000000 3.629238 -94.231641 -20.995301 -54.649558 -0.000417 -69.953603 -0.000292 -2.203245 -9.850183 6.529371 0.000000 0.000000 -0.000000 -0.000000 -0.000000 0.000000 -27.996574 -0.833671 -44.773310 0.000000 0.000000 0.000000 
-46.457900 90.180100 -86.082800 -23.615214 29.706127 128.805065 -47.964977 -29.773750 -58.852243 -0.000000 33.611843 0.000000 -12.462752 -33.400794 -27.957690 -0.000000 -11.056584 -0.000000 0.000000 0.000000 -0.000000 36.194497 -7.357816 12.621503 -180.000037 67.208217 180.000037 -15.071460 -7.635971 -10.283624 0.000000 19.119256 -0.000000 -0.000000 -0.000000 -0.000000 -6.546590 8.108981 8.982709 0.000000 0.572060 -0.000000 -0.000000 0.000000 -0.000000 -21.240488 0.000000 9.749255 64.738560 -4.778140 52.118393 0.000000 -49.239886 0.000000 7.099132 -2.607415 1.701571 -0.000000 0.000000 -0.000000 -11.135111 0.000000 3.284591 -92.646210 -20.582435 -52.658502 -0.000399 -69.133707 -0.000275 -2.130541 -10.080771 5.913022 -0.000000 0.000000 0.000000 -0.000000 0.000000 -0.000000 -24.680873 -1.537715 -49.743220 0.000000 -0.000000 0.000000 
-47.612100 89.213800 -83.439400 -23.429450 25.354332 135.629876 -46.693617 -29.414432 -57.641642 -0.000000 34.863847 -0.000000 -11.801620 -32.649516 -27.546384 0.000000 -10.041436 -0.000000 0.000000 0.000000 -0.000000 35.580162 -7.301704 13.445764 -180.000037 72.859687 180.000037 -14.489510 -8.183997 -10.308538 -0.000000 18.969282 -0.000000 -0.000000 -0.000000 0.000000 -6.097452 8.312164 6.503582 -0.000000 0.420864 -0.000000 -0.000000 0.000000 0.000000 -17.601077 0.000000 8.128732 67.300033 -6.076719 54.034595 0.000000 -53.517562 -0.000000 7.416964 -3.367022 1.611608 -0.000000 0.000000 0.000000 -9.029297 -0.000000 3.098074 -91.412213 -20.692201 -51.455400 -0.000376 -67.983196 -0.000254 -2.152530 -10.290458 6.489418 0.000000 0.000000 -0.000000 -0.000000 0.000000 0.000000 -20.963978 -1.914361 -54.230885 -0.000000 0.000000 0.000000 
